<?xml version="1.0" standalone="no"?><!DOCTYPE svg PUBLIC "-//W3C//DTD SVG 1.1//EN" "http://www.w3.org/Graphics/SVG/1.1/DTD/svg11.dtd"><svg t="1680430375170" class="icon" viewBox="0 0 1024 1024" version="1.1" xmlns="http://www.w3.org/2000/svg" p-id="9635" xmlns:xlink="http://www.w3.org/1999/xlink" width="200" height="200"><path d="M307.2 682.65984m-34.12992 0a34.12992 34.12992 0 1 0 68.25984 0 34.12992 34.12992 0 1 0-68.25984 0Z" p-id="9636" fill="#3554d1"></path><path d="M716.8 682.65984m-34.12992 0a34.12992 34.12992 0 1 0 68.25984 0 34.12992 34.12992 0 1 0-68.25984 0Z" p-id="9637" fill="#3554d1"></path><path d="M887.47008 307.2h-34.14016V170.65984A68.22912 68.22912 0 0 0 785.07008 102.4H238.8992a68.29056 68.29056 0 0 0-68.27008 68.25984V307.2h-34.0992A34.26304 34.26304 0 0 0 102.4 341.32992v136.52992A34.23232 34.23232 0 0 0 136.52992 512h34.0992v375.45984A34.23232 34.23232 0 0 0 204.76928 921.6h68.25984a34.23232 34.23232 0 0 0 34.14016-34.14016V819.2H716.8v68.25984A34.23232 34.23232 0 0 0 750.92992 921.6H819.2a34.22208 34.22208 0 0 0 34.12992-34.14016V512h34.14016A34.26304 34.26304 0 0 0 921.6 477.85984V341.32992A34.22208 34.22208 0 0 0 887.47008 307.2zM238.8992 307.2h238.92992v238.92992H238.8992V307.2z m546.12992 443.72992H238.8992V614.4h546.12992v136.52992z m0-204.8H546.0992V307.2h238.92992v238.92992z m0-307.2h-546.0992l-0.03072-68.27008h546.12992v68.27008z" p-id="9638" fill="#3554d1"></path></svg>