<?xml version="1.0" standalone="no"?><!DOCTYPE svg PUBLIC "-//W3C//DTD SVG 1.1//EN" "http://www.w3.org/Graphics/SVG/1.1/DTD/svg11.dtd"><svg t="1680531605760" class="icon" viewBox="0 0 1024 1024" version="1.1" xmlns="http://www.w3.org/2000/svg" p-id="23472" xmlns:xlink="http://www.w3.org/1999/xlink" width="200" height="200"><path d="M632.40704 339.2256c-24.19712 0-48.04096 10.7008-65.4336 29.55264L548.608 388.608l-36.48512 39.16288-36.49024-39.168-18.36544-19.82464c-17.39776-18.72896-41.35424-29.55264-65.4336-29.55264-51.33312 0-93.17376 44.63616-93.17376 99.49184l0.12288 0.12288 0.24576 2.18624 0.36352 3.52768-0.12288 3.65056-0.12288 2.19136c0.12288 4.98688 1.46432 13.49632 6.69184 26.2656l0.73216 1.9456c18.4832 44.032 82.0992 123.58144 205.55264 218.9312 123.57632-95.34976 187.1872-175.02208 205.67552-219.04896l0.60416-1.4592c5.23264-12.89216 6.56896-21.28384 6.81472-26.2656l-0.12288-2.92352-0.12288-3.65056 0.36864-3.64544 0.11776-1.5872 0.12288-0.9728c-0.12288-54.12352-41.84064-98.7648-93.17376-98.7648z m47.5648 116.52096l-0.12288 1.09056c-0.36352 4.0192-1.58208 10.94656-5.95968 21.5296l-0.49152 1.09568c-5.10464 12.16512-13.37856 26.15296-24.57088 41.59488a18.7648 18.7648 0 0 1-15.20128 7.66464 18.3808 18.3808 0 0 1-10.94656-3.52256 18.56512 18.56512 0 0 1-4.13184-26.03008c11.91936-16.41984 17.63328-27.48928 20.31104-33.81248l0.36352-0.85504c2.19136-5.47328 3.04128-8.7552 3.28704-9.97376l0.4864-12.28288a55.13216 55.13216 0 0 0-7.296-25.4208c-5.23264-8.87808-2.19136-20.31104 6.68672-25.54368 8.87808-5.22752 20.31104-2.18624 25.54368 6.69184 7.90528 13.37856 12.16 28.94848 12.52864 44.75904v1.21856l-0.6144 5.47328 0.12288 6.3232zM512 14.47424c-274.88256 0-497.82784 222.94528-497.82784 497.82784 0 275.00544 222.94528 497.83296 497.82784 497.83296 275.00544 0 497.82784-222.94528 497.82784-497.83296S787.00544 14.47424 512 14.47424z m262.95808 430.08l-0.24064 1.58208 0.12288 4.25984c-0.12288 13.49632-3.65056 28.57984-10.46016 45.12256l-0.73216 1.82272c-28.22144 67.8656-118.34368 163.10784-241.07008 254.93504l-10.45504 7.7824-10.46016-7.7824c-122.84928-91.8272-213.0944-187.06944-241.31584-254.68928l-0.73216-1.9456c-6.8096-16.54272-10.2144-31.744-10.46016-45.12768v-0.4864l0.12288-3.76832-0.12288-1.5872a41.81504 41.81504 0 0 1-0.3584-5.8368c0-82.33984 64.09728-149.23776 142.90944-149.23776 37.94944 0 75.04896 16.54272 101.92896 45.36832l18.4832 19.82976 18.37056-19.82976c26.88-28.8256 63.9744-45.3632 101.91872-45.3632 78.8224 0 142.91968 66.8928 142.91968 149.23776 0 2.06336-0.24576 4.00896-0.36864 5.71392z" fill="#b8dfe8" p-id="23473"></path></svg>